<?xml version="1.0" encoding="UTF-8" standalone="no"?>
<!DOCTYPE svg PUBLIC "-//W3C//DTD SVG 1.1//EN"
 "http://www.w3.org/Graphics/SVG/1.1/DTD/svg11.dtd">
<!-- Generated by graphviz version 7.0.1 (20221109.1506)
 -->
<!-- Title: FrameGraph Pages: 1 -->
<svg width="144pt" height="169pt"
 viewBox="0.00 0.00 144.00 169.00" xmlns="http://www.w3.org/2000/svg" xmlns:xlink="http://www.w3.org/1999/xlink">
<g id="graph0" class="graph" transform="scale(1 1) rotate(0) translate(4 165)">
<title>FrameGraph</title>
<polygon fill="white" stroke="none" points="-4,4 -4,-165 140,-165 140,4 -4,4"/>
<g id="clust3" class="cluster">
<title>cluster_0</title>
</g>
<!-- P0 -->
<g id="node1" class="node">
<title>P0</title>
<path fill="lightgray" stroke="black" d="M30.5,-103.5C30.5,-103.5 105.5,-103.5 105.5,-103.5 111.5,-103.5 117.5,-109.5 117.5,-115.5 117.5,-115.5 117.5,-132.5 117.5,-132.5 117.5,-138.5 111.5,-144.5 105.5,-144.5 105.5,-144.5 30.5,-144.5 30.5,-144.5 24.5,-144.5 18.5,-138.5 18.5,-132.5 18.5,-132.5 18.5,-115.5 18.5,-115.5 18.5,-109.5 24.5,-103.5 30.5,-103.5"/>
<text text-anchor="start" x="32.5" y="-135.5" font-family="Helvetica,sans-Serif" font-weight="bold" font-size="10.00">Geometry Pass</text>
<polyline fill="none" stroke="black" points="18.5,-129.5 117.5,-129.5"/>
<text text-anchor="start" x="51.5" y="-119.5" font-family="Helvetica,sans-Serif" font-size="10.00">Refs: 0</text>
<text text-anchor="start" x="48.5" y="-108.5" font-family="Helvetica,sans-Serif" font-size="10.00"> Index: 0</text>
</g>
<!-- R0_1 -->
<g id="node2" class="node">
<title>R0_1</title>
<polygon fill="skyblue" stroke="black" points="16,-16.5 16,-66.5 120,-66.5 120,-16.5 16,-16.5"/>
<text text-anchor="start" x="39" y="-57.5" font-family="Helvetica,sans-Serif" font-weight="bold" font-size="10.00">DepthMap_0</text>
<text text-anchor="start" x="30" y="-47.5" font-family="Helvetica,sans-Serif" font-size="10.00">6402[2048, 2048]</text>
<polyline fill="none" stroke="black" points="16,-42.5 120,-42.5"/>
<text text-anchor="start" x="50" y="-32.5" font-family="Helvetica,sans-Serif" font-size="10.00">Index: 0</text>
<text text-anchor="start" x="50" y="-21.5" font-family="Helvetica,sans-Serif" font-size="10.00">Refs : 0</text>
</g>
<!-- P0&#45;&gt;R0_1 -->
<g id="edge1" class="edge">
<title>P0&#45;&gt;R0_1</title>
<path fill="none" stroke="orangered" d="M68,-103.51C68,-95.75 68,-86.56 68,-77.71"/>
<polygon fill="orangered" stroke="orangered" points="71.5,-77.92 68,-67.92 64.5,-77.92 71.5,-77.92"/>
</g>
</g>
</svg>
